{"title":"Pokemon BW Adventures in Unova - 36 - Capacia Island UFO! [C-W].","uid":9006217,"size":116372948,"categoryP":"video","categoryS":"tv_shows","magnet":"?xt=urn:btih:f3209b09ac6e749a11183e0b384e30a997505644&amp;dn=Pokemon+BW+Adventures+in+Unova+-+36+-+Capacia+Island+UFO%21+%5BC-W%5D.&amp;tr=udp%3A%2F%2Ftracker.openbittorrent.com%3A80&amp;tr=udp%3A%2F%2Fopen.demonii.com%3A1337&amp;tr=udp%3A%2F%2Ftracker.coppersurfer.tk%3A6969&amp;tr=udp%3A%2F%2Fexodus.desync.com%3A6969","seeders":1,"leechers":0,"uploader":null,"files":-1,"time":1381034306,"description":"Pokemon BW Adventures in Unova - 36 - Capacia Island UFO! [C-W].avi\nFormat : AVI\nFormat/Info : Audio Video Interleave\nFile size : 111 MiB\nDuration : 21mn 19s\nOverall bit rate : 728 Kbps\nWriting library : VirtualDub build 35486/release\n\nVideo\nID : 0\nFormat : MPEG-4 Visual\nFormat profile : Advanced Simple@L5\nFormat settings, BVOP : 2\nFormat settings, QPel : No\nFormat settings, GMC : No warppoints\nFormat settings, Matrix : Default (H.263)\nMuxing mode : Packed bitstream\nCodec ID : XVID\nCodec ID/Hint : XviD\nDuration : 21mn 19s\nBit rate : 588 Kbps\nWidth : 704 pixels\nHeight : 396 pixels\nDisplay aspect ratio : 16:9\nFrame rate : 29.970 fps\nColor space : YUV\nChroma subsampling : 4:2:0\nBit depth : 8 bits\nScan type : Progressive\nCompression mode : Lossy\nBits/(Pixel*Frame) : 0.070\nStream size : 89.7 MiB (81%)\nWriting library : XviD 73\n\nAudio\nID : 1\nFormat : MPEG Audio\nFormat version : Version 1\nFormat profile : Layer 3\nMode : Joint stereo\nMode extension : MS Stereo\nCodec ID : 55\nCodec ID/Hint : MP3\nDuration : 21mn 19s\nBit rate mode : Constant\nBit rate : 128 Kbps\nChannel(s) : 2 channels\nSampling rate : 48.0 KHz\nCompression mode : Lossy\nStream size : 19.5 MiB (18%)\nAlignment : Split accross interleaves\nInterleave, duration : 33 ms (1.00 video frame)\nInterleave, preload duration : 500 ms","torrent":{"xt":"urn:btih:f3209b09ac6e749a11183e0b384e30a997505644","amp;dn":"Pokemon+BW+Adventures+in+Unova+-+36+-+Capacia+Island+UFO%21+%5BC-W%5D.","amp;tr":["udp%3A%2F%2Ftracker.openbittorrent.com%3A80","udp%3A%2F%2Fopen.demonii.com%3A1337","udp%3A%2F%2Ftracker.coppersurfer.tk%3A6969","udp%3A%2F%2Fexodus.desync.com%3A6969"],"infoHash":"f3209b09ac6e749a11183e0b384e30a997505644","infoHashBuffer":{"type":"Buffer","data":[243,32,155,9,172,110,116,154,17,24,62,11,56,78,48,169,151,80,86,68]},"announce":[],"urlList":[]}}